<?xml version="1.0" encoding="utf-8"?>
<!-- Generator: Adobe Illustrator 24.3.0, SVG Export Plug-In . SVG Version: 6.00 Build 0)  -->
<svg version="1.1" id="Ebene_1" xmlns="http://www.w3.org/2000/svg" xmlns:xlink="http://www.w3.org/1999/xlink" x="0px" y="0px"
	 viewBox="0 0 500 500" style="enable-background:new 0 0 500 500;" xml:space="preserve">
<style type="text/css">
	.st0{fill:#FFFFFF;}
</style>
<path class="st0" d="M250.4,0.5C112.5,0.5,0.7,112.3,0.7,250.2s111.8,249.6,249.6,249.6S500,388,500,250.2S388.2,0.5,250.4,0.5z
	 M250,470.6c-121.8,0-220.6-98.8-220.6-220.6S128.2,29.4,250,29.4S470.6,128.2,470.6,250S371.8,470.6,250,470.6z"/>
<rect x="92.8" y="126" class="st0" width="314.5" height="31.6"/>
<rect x="92.8" y="198.1" class="st0" width="314.5" height="31.6"/>
<rect x="92.8" y="270.3" class="st0" width="314.5" height="31.6"/>
<g>
	<polygon class="st0" points="139.2,374 188.3,374 210.9,342.5 161.8,342.5 	"/>
	<polygon class="st0" points="285.4,342.5 236.3,342.5 213.7,374 262.8,374 	"/>
	<polygon class="st0" points="360,342.5 310.8,342.5 288.2,374 337.4,374 	"/>
	<polygon class="st0" points="385.4,342.5 362.8,374 407.2,374 407.2,342.5 	"/>
	<polygon class="st0" points="136.3,342.5 92.8,342.5 92.8,374 113.7,374 	"/>
</g>
</svg>
