<?xml version="1.0" encoding="utf-8"?>
<!-- Generator: Adobe Illustrator 24.3.0, SVG Export Plug-In . SVG Version: 6.00 Build 0)  -->
<svg version="1.1" id="Ebene_1" xmlns="http://www.w3.org/2000/svg" xmlns:xlink="http://www.w3.org/1999/xlink" x="0px" y="0px"
	 viewBox="0 0 500 500" style="enable-background:new 0 0 500 500;" xml:space="preserve">
<path d="M250.36,0.53C112.49,0.53,0.73,112.29,0.73,250.16S112.49,499.8,250.36,499.8S500,388.03,500,250.16
	S388.23,0.53,250.36,0.53z M250,470.56c-121.81,0-220.56-98.75-220.56-220.56S128.19,29.44,250,29.44S470.56,128.19,470.56,250
	S371.81,470.56,250,470.56z"/>
<rect x="92.77" y="125.96" width="314.46" height="31.58"/>
<rect x="92.77" y="198.13" width="314.46" height="31.58"/>
<rect x="92.77" y="270.29" width="314.46" height="31.58"/>
<g>
	<polygon points="139.16,374.04 188.28,374.04 210.88,342.46 161.75,342.46 	"/>
	<polygon points="285.42,342.46 236.3,342.46 213.7,374.04 262.82,374.04 	"/>
	<polygon points="359.96,342.46 310.84,342.46 288.24,374.04 337.37,374.04 	"/>
	<polygon points="385.38,342.46 362.78,374.04 407.23,374.04 407.23,342.46 	"/>
	<polygon points="136.34,342.46 92.77,342.46 92.77,374.04 113.74,374.04 	"/>
</g>
</svg>
