<?xml version="1.0" encoding="utf-8"?>
<!-- Generator: Adobe Illustrator 24.3.0, SVG Export Plug-In . SVG Version: 6.00 Build 0)  -->
<svg version="1.1" id="Ebene_1" xmlns="http://www.w3.org/2000/svg" xmlns:xlink="http://www.w3.org/1999/xlink" x="0px" y="0px"
	 viewBox="0 0 500 500" style="enable-background:new 0 0 500 500;" xml:space="preserve">
<path d="M250.27,0.8C112.4,0.8,0.63,112.57,0.63,250.44S112.4,500.08,250.27,500.08s249.64-111.77,249.64-249.64
	S388.14,0.8,250.27,0.8z M249.91,470.84c-121.81,0-220.56-98.75-220.56-220.56S128.09,29.72,249.91,29.72
	s220.56,98.75,220.56,220.56S371.72,470.84,249.91,470.84z"/>
<polygon points="113.84,123.04 247.48,256.68 113.84,390.33 135.76,412.25 291.32,256.68 135.76,101.12 "/>
<polygon points="250.82,123.04 384.46,256.68 250.82,390.33 272.74,412.25 428.3,256.68 272.74,101.12 "/>
</svg>
