<?xml version="1.0" encoding="utf-8"?>
<!-- Generator: Adobe Illustrator 24.3.0, SVG Export Plug-In . SVG Version: 6.00 Build 0)  -->
<svg version="1.1" id="Ebene_1" xmlns="http://www.w3.org/2000/svg" xmlns:xlink="http://www.w3.org/1999/xlink" x="0px" y="0px"
	 viewBox="0 0 500 500" style="enable-background:new 0 0 500 500;" xml:space="preserve">
<style type="text/css">
	.st0{fill:#FFFFFF;}
</style>
<path class="st0" d="M250.3,0.8C112.4,0.8,0.6,112.6,0.6,250.4s111.8,249.6,249.6,249.6s249.6-111.8,249.6-249.6
	S388.1,0.8,250.3,0.8z M249.9,470.8c-121.8,0-220.6-98.8-220.6-220.6S128.1,29.7,249.9,29.7s220.6,98.8,220.6,220.6
	S371.7,470.8,249.9,470.8z"/>
<polygon class="st0" points="113.8,123 247.5,256.7 113.8,390.3 135.8,412.2 291.3,256.7 135.8,101.1 "/>
<polygon class="st0" points="250.8,123 384.5,256.7 250.8,390.3 272.7,412.2 428.3,256.7 272.7,101.1 "/>
</svg>
